<svg width="64" height="64" viewBox="0 0 64 64" fill="none" xmlns="http://www.w3.org/2000/svg">
<g clip-path="url(#clip0_389_1533)">
<path d="M49.7147 23.018C49.7147 23.018 44.553 19.0667 41.8 15.2221C40.7676 13.8338 37.4411 14.0474 36.2941 16.7172L18.3999 23.1248L6.58508 17.2512C4.74978 16.1833 2.34094 16.9308 1.30858 18.9599C0.276225 20.8822 0.849758 23.3384 2.79977 24.4063L4.63507 25.3675C3.02918 25.1539 1.30858 25.9015 0.505638 27.3966C-0.526721 29.3188 0.046812 31.7751 1.99682 32.843L6.12626 35.0857C4.29095 34.0177 1.88212 34.7653 0.849758 36.7944C-0.182601 38.7166 0.390931 41.1729 2.34094 42.2408C2.34094 42.2408 23.1028 54.2017 30.2146 57.7258C35.8353 60.6093 46.9618 61.9976 53.9589 54.0949C56.253 51.3183 49.7147 23.018 49.7147 23.018Z" fill="#D99B57"/>
<path d="M58.318 23.0203C54.6474 20.6709 52.1239 17.5739 50.2886 12.875C49.6003 11.2731 47.0768 10.9527 45.5856 13.6225C43.4062 17.4671 45.4709 20.5641 46.618 21.9524L47.1915 22.5932C47.1915 22.5932 47.5356 23.7679 48.1092 25.1562C45.0121 24.5154 41.5709 26.1173 39.1621 29.1076C36.6385 32.2046 30.6738 37.5442 28.1502 40.6412C25.0531 44.379 25.8561 49.7187 29.2973 52.0681C29.2973 52.0681 47.3062 64.3493 59.2357 49.2915C68.6416 37.5442 61.9887 25.3698 58.318 23.0203Z" fill="#FFDD67"/>
<path d="M52.2386 27.5052C54.0739 28.7867 54.5328 31.2429 53.1563 33.1652C51.8945 35.0875 49.2563 35.6215 47.4209 34.34L18.859 15.224C17.0237 13.9424 16.5649 11.4862 17.9414 9.56391C19.2031 7.64163 21.8414 7.10766 23.6767 8.38918L52.2386 27.5052Z" fill="#FFDD67"/>
<path d="M37.44 25.3675L19.2016 13.0862C18.1693 12.4455 17.481 11.3775 17.8251 9.77563C16.5634 11.9115 17.3663 14.0474 18.8575 15.1153L37.0958 27.3965C38.9312 28.678 39.2753 26.649 37.44 25.3675Z" fill="#EBA352"/>
<path d="M42.946 31.2409C44.7814 32.5224 45.2402 34.9786 43.8637 36.9009C42.6019 38.8232 39.9637 39.3572 38.1284 38.0756L9.56645 18.8529C7.73114 17.5713 7.27232 15.1151 8.6488 13.1928C9.91057 11.2705 12.5488 10.7366 14.3841 12.0181L42.946 31.2409Z" fill="#FFDD67"/>
<path d="M31.9355 31.6705L9.91189 16.8262C8.87953 16.1855 8.19129 14.9039 8.53541 13.5156C7.27364 15.6515 7.96188 18.0009 9.56777 19.0689L31.7061 33.6996C33.4267 34.9811 33.7709 32.8452 31.9355 31.6705Z" fill="#EBA352"/>
<path d="M41.1108 39.7863C42.9461 41.0678 43.4049 43.5241 42.0284 45.4463C40.7666 47.3686 38.1284 47.9026 36.2931 46.6211L7.73115 27.3983C5.89585 26.1167 5.43702 23.6605 6.8135 21.7382C8.07527 19.8159 10.7135 19.282 12.5488 20.5635L41.1108 39.7863Z" fill="#FFDD67"/>
<path d="M27.5759 38.5047L8.07583 25.4759C7.04347 24.8352 6.35523 23.3401 6.81405 21.845C5.32287 23.874 5.8964 26.5439 7.50229 27.6118L27.2318 40.5338C29.0671 41.8153 29.4112 39.7862 27.5759 38.5047Z" fill="#EBA352"/>
<path d="M40.308 49.3975C42.1433 50.679 29.0668 51.9606 27.2315 50.679L7.04313 37.1163C5.20783 35.8348 4.749 33.3785 6.12548 31.4562C7.38725 29.534 10.0255 29 11.8608 30.2815L40.308 49.3975Z" fill="#FFDD67"/>
<path d="M63.9379 38.2915C63.9379 38.2915 61.9879 47.6893 53.9585 53.3493C46.8467 58.3686 35.8348 53.9901 30.5583 50.7863C25.0524 47.2621 22.2995 45.5534 8.9935 36.1556C6.46996 34.3401 5.78172 33.1654 6.12584 31.2431C4.17583 33.1654 5.20819 36.1556 6.81408 37.2236L8.19056 38.0779C8.19056 38.0779 24.1348 48.9708 29.526 52.3882C34.4584 55.592 47.1908 60.6113 55.2202 54.6309C64.2821 48.1165 63.9379 38.2915 63.9379 38.2915ZM50.2879 26.0103C47.9937 23.7676 47.879 20.5638 47.879 20.5638L47.3055 19.9231C46.3878 18.8551 44.8966 16.6125 45.4702 13.9426C43.2908 17.6804 45.4702 20.6706 46.5025 21.9521L47.0761 22.5929C47.0761 22.5929 46.9614 23.554 47.5349 24.3016L50.2879 26.0103Z" fill="#EBA352"/>
<path d="M38.5879 -4L42.0291 9.02878L48.7968 -3.03886L38.5879 -4ZM55.5645 -0.155442L50.4027 10.6307L62.4469 7.74726L55.5645 -0.155442ZM29.8702 -2.3981L33.082 9.34916L22.529 3.04836L29.8702 -2.3981Z" fill="#42ADE2"/>
</g>
<defs>
<clipPath id="clip0_389_1533">
<rect width="64" height="64" fill="white"/>
</clipPath>
</defs>
</svg>
