<svg width="64" height="64" viewBox="0 0 64 64" fill="none" xmlns="http://www.w3.org/2000/svg">
<path d="M32.2909 60.6316C48.5181 60.6316 61.6728 47.8128 61.6728 32C61.6728 16.1872 48.5181 3.36841 32.2909 3.36841C16.0638 3.36841 2.90912 16.1872 2.90912 32C2.90912 47.8128 16.0638 60.6316 32.2909 60.6316Z" fill="#FFDD67"/>
<path d="M32.2909 5.47798V4.49121M45.0267 8.52853L45.5033 7.65726M54.8511 16.9887L55.6827 16.4227M59.5015 28.9101L60.5091 28.7898M57.9208 41.5667L58.8685 41.9203M50.4643 52.066L51.1436 52.7993M38.8493 57.9899L39.0949 58.9474M25.7325 57.9899L25.4869 58.9474M14.1176 52.066L13.4383 52.7993M6.66111 41.5667L5.71334 41.9203M5.08038 28.9101L4.07275 28.7898M9.73074 16.9887L8.89914 16.4227M19.5551 8.52853L19.0785 7.65726" stroke="#D99B57" stroke-width="2.57009" stroke-linecap="round"/>
<path d="M45.0265 16.1738L42.451 22.1057L48.4585 20.5146L45.0265 16.1738Z" fill="#EBA352"/>
<path d="M30.8659 15.1748L27.2107 18.162L32.4752 21.5536L30.8659 15.1748Z" fill="#EBA352"/>
<path d="M45.6683 28.0945C43.9882 26.9585 42.9345 25.4396 42.0921 23.1008C41.7789 22.2313 40.9977 21.6692 40.1017 21.6692C39.1386 21.6692 38.258 22.2831 37.6858 23.3533C37.3325 24.0138 37.1601 24.6552 37.1053 25.2621C36.5119 24.1925 35.3063 23.965 34.7347 24.7256C34.7347 24.7256 30.0334 21.1925 28.4299 20.0676C26.2988 18.5743 23.4761 20.2282 23.5467 21.9363C20.8558 20.4942 17.9018 23.0402 18.8119 25.7085C17.7711 25.5199 15.1091 28.2476 17.9077 30.3426C15.9692 30.5393 15.2162 33.5398 17.4691 34.9057C17.4691 34.9057 17.4797 35.3206 17.5098 35.5243C16.0251 35.9701 15.5129 38.7448 16.9487 39.6207C16.9487 39.6207 27.3037 46.1571 30.8682 48.1236C32.805 49.192 36.1399 49.6116 39.111 48.6578C41.9961 48.3622 44.4439 46.8502 46.4107 44.1558C51.8236 36.7406 47.5356 29.3573 45.6683 28.0945ZM45.0343 43.433C42.7802 46.5639 39.5431 46.8887 37.0659 46.8887C33.0222 46.8887 30.5521 44.9723 30.5521 44.9723L19.4542 36.7807C17.3532 35.3468 18.6183 33.062 20.0923 33.1039L28.9208 39.0509L30.0075 39.1178C30.0075 39.1178 22.1221 33.5218 19.569 31.5519C18.0784 30.4019 18.5682 28.2057 20.4979 27.7692L31.5393 35.6046L32.6248 35.6715L20.8305 26.6291C18.3386 24.8286 20.8394 21.4335 23.2553 23.1625C26.0416 25.1562 34.4239 31.4756 34.4239 31.4756L35.5106 31.5432L24.4757 22.5072C24.3803 21.1128 26.2564 19.9006 27.7564 21.0098C30.7728 23.2404 39.8268 29.9253 39.8268 29.9253C39.5937 29.2799 39.4771 28.7946 39.4771 28.7946C39.4771 28.7946 37.757 25.9675 38.6889 23.9091C39.5071 22.1039 41.1625 22.3972 41.4963 23.3673C42.3835 25.95 43.3024 27.4829 45.1409 28.7748C47.4885 30.4246 49.8892 36.6923 45.0343 43.433Z" fill="#EBA352"/>
<path d="M40.8322 14.791L35.7643 14.2737L37.4936 21.4084L40.8322 14.791Z" fill="#EBA352"/>
<path d="M32.2909 55.579C45.6261 55.579 56.4364 45.0224 56.4364 32.0001C56.4364 18.9778 45.6261 8.42114 32.2909 8.42114C18.9557 8.42114 8.14545 18.9778 8.14545 32.0001C8.14545 45.0224 18.9557 55.579 32.2909 55.579Z" stroke="#D99B57" stroke-width="2.57009" stroke-linecap="round"/>
</svg>
