<svg width="176" height="176" viewBox="0 0 176 176" fill="none" xmlns="http://www.w3.org/2000/svg">
<path d="M176 88C176 136.601 136.601 176 88 176C39.3989 176 0 136.601 0 88C0 39.3989 39.3989 0 88 0C136.601 0 176 39.3989 176 88ZM8.22829 88C8.22829 132.057 43.9433 167.772 88 167.772C132.057 167.772 167.772 132.057 167.772 88C167.772 43.9433 132.057 8.22829 88 8.22829C43.9433 8.22829 8.22829 43.9433 8.22829 88Z" fill="#FB0938"/>
<path d="M127.111 127.111L48.8889 48.8889M127.111 48.8889L48.8889 127.111" stroke="#FB0938" stroke-width="7.11" stroke-linecap="round"/>
</svg>
