<svg width="966" height="144" viewBox="0 0 966 144" fill="none" xmlns="http://www.w3.org/2000/svg">
<path d="M70.0096 8C57.3508 7.99811 44.9755 11.75 34.4493 18.7817C23.9232 25.8133 15.7189 35.8087 10.8737 47.5035C6.02856 59.1984 4.76009 72.0674 7.22924 84.4831C9.69838 96.8988 15.7938 108.304 24.745 117.255C33.6961 126.206 45.101 132.301 57.5166 134.771C69.9323 137.24 82.8013 135.972 94.4961 131.127C106.191 126.281 116.186 118.077 123.218 107.55C130.25 97.0242 134.002 84.6494 134 71.9906C134 55.0192 127.258 38.7426 115.257 26.7421C103.257 14.7415 86.9809 8 70.0096 8ZM113.312 101.839C84.9336 104.405 55.2857 104.1 24.6932 101.619C23.3059 101.497 22.0104 100.874 21.0497 99.8654C20.0889 98.8572 19.5289 97.5333 19.4739 96.1417C18.93 79.4713 18.8918 63.3452 19.4739 47.8199C19.5249 46.4246 20.0717 45.0929 21.0161 44.0645C21.9606 43.0361 23.2406 42.378 24.6266 42.2087C54.8035 38.6368 85.2977 38.6625 115.469 42.2851C116.727 42.443 117.89 43.0397 118.752 43.9699C119.614 44.9001 120.121 46.1044 120.183 47.3712C121.08 63.0984 121.141 78.8625 120.364 94.5962C120.256 96.4496 119.483 98.2016 118.188 99.5318C116.893 100.862 115.162 101.681 113.312 101.839ZM95.9549 71.828C95.9549 76.9595 94.4331 81.9758 91.5822 86.2425C88.7313 90.5092 84.679 93.835 79.9381 95.7987C75.1972 97.7625 69.9806 98.2764 64.9477 97.2753C59.9148 96.2742 55.2917 93.803 51.6631 90.1745C48.0346 86.5459 45.5639 81.9228 44.5628 76.8898C43.5617 71.8569 44.0752 66.6403 46.0389 61.8994C48.0026 57.1585 51.3284 53.1062 55.5951 50.2553C59.8618 47.4044 64.8781 45.8826 70.0096 45.8826C76.8907 45.8826 83.4899 48.6162 88.3556 53.4819C93.2213 58.3476 95.9549 64.9468 95.9549 71.828Z" fill="white"/>
<path d="M217.621 41.1527H208.998C208.514 41.1527 208.035 41.2514 207.587 41.4428C207.14 41.6343 206.733 41.9149 206.391 42.2685C206.05 42.6222 205.779 43.0415 205.594 43.5034C205.41 43.9652 205.315 44.46 205.317 44.9595V46.9738C201.427 43.6462 196.731 41.4767 191.734 40.6993C175.456 38.1713 160.106 50.9623 157.44 69.2725C154.774 87.5827 165.799 104.463 182.077 106.981C186.088 107.568 190.174 107.269 194.064 106.104C197.955 104.939 201.561 102.934 204.643 100.223C204.584 101.179 204.516 102.116 204.428 102.982C204.114 106.443 202.847 109.738 200.776 112.48C193.091 122.41 178.708 119.862 167.097 111.916C166.723 111.663 166.303 111.49 165.863 111.406C165.423 111.322 164.971 111.33 164.534 111.428C164.097 111.527 163.683 111.714 163.316 111.98C162.95 112.245 162.639 112.583 162.4 112.973C160.721 115.713 158.973 118.674 157.518 121.433C157.04 122.3 156.886 123.316 157.084 124.292C157.282 125.267 157.818 126.135 158.592 126.731C177.555 141.174 219.779 142.785 221.321 101.653V44.9394C221.316 43.9314 220.924 42.9671 220.23 42.2572C219.536 41.5473 218.598 41.15 217.621 41.1527ZM189.41 91.6415C180.768 91.6415 173.786 83.8463 173.786 74.238C173.786 64.6297 180.778 56.8443 189.41 56.8443C198.042 56.8443 205.034 64.6297 205.034 74.238C205.034 83.8463 198.042 91.6415 189.41 91.6415ZM246.964 24.2926V98.017C246.976 99.482 246.531 100.912 245.694 102.096C243.448 105.238 239.894 107.303 235.226 108.441C234.372 108.673 233.472 108.652 232.629 108.381C231.805 108.101 231.076 107.584 230.529 106.89C229.777 105.905 229.38 104.68 229.406 103.426V18.3504C229.366 17.0989 229.707 15.8657 230.383 14.8253V14.7649C230.952 14.0303 231.721 13.4887 232.591 13.2103C233.462 12.932 234.394 12.9299 235.265 13.2039C237.726 13.861 240.098 14.8322 242.325 16.0946C243.729 16.9199 244.897 18.112 245.711 19.5513C246.526 20.9907 246.957 22.6261 246.964 24.2926ZM286.667 40.5989C280.149 40.5989 273.777 42.5926 268.357 46.3281C262.937 50.0636 258.713 55.3728 256.219 61.5846C253.725 67.7963 253.073 74.6317 254.345 81.2257C255.618 87.8197 258.757 93.8763 263.367 98.6297C267.977 103.383 273.85 106.62 280.244 107.93C286.637 109.241 293.264 108.566 299.286 105.992C305.308 103.417 310.454 99.0592 314.074 93.468C317.694 87.8768 319.625 81.3036 319.623 74.5803C319.618 65.5686 316.144 56.9278 309.964 50.5574C303.784 44.1871 295.404 40.6088 286.667 40.6088V40.5989ZM286.501 92.0748C277.606 92.0748 270.399 84.239 270.399 74.5803C270.399 64.9216 277.606 57.0961 286.501 57.0961C295.397 57.0961 302.603 64.9317 302.603 74.5803C302.603 84.2289 295.397 92.0748 286.501 92.0748ZM430.044 40.5989C423.525 40.5989 417.153 42.5926 411.733 46.3281C406.314 50.0636 402.089 55.3728 399.595 61.5846C397.101 67.7963 396.449 74.6317 397.721 81.2257C398.994 87.8197 402.134 93.8763 406.744 98.6297C411.354 103.383 417.227 106.62 423.62 107.93C430.014 109.241 436.64 108.566 442.662 105.992C448.684 103.417 453.83 99.0592 457.451 93.468C461.071 87.8768 463.002 81.3036 463 74.5803C462.999 70.1161 462.144 65.6959 460.486 61.5723C458.828 57.4486 456.399 53.7024 453.336 50.5476C450.274 47.3928 446.639 44.891 442.639 43.1857C438.639 41.4804 434.353 40.6048 430.024 40.6088L430.044 40.5989ZM429.878 92.0748C420.982 92.0748 413.776 84.239 413.776 74.5803C413.776 64.9216 420.982 57.0961 429.878 57.0961C438.774 57.0961 445.98 64.9317 445.98 74.5803C445.98 84.2289 438.744 92.0748 429.858 92.0748H429.878ZM360.88 40.6589C354.652 40.6754 348.601 42.7982 343.654 46.7019V18.1591C343.654 17.2643 343.31 16.4062 342.697 15.7735C342.083 15.1407 341.251 14.785 340.383 14.785H329.349C328.92 14.785 328.494 14.8727 328.097 15.0422C327.7 15.2118 327.34 15.4602 327.036 15.7735C326.732 16.0868 326.491 16.4588 326.327 16.8682C326.162 17.2775 326.078 17.716 326.078 18.1591V104.141C326.078 104.584 326.162 105.022 326.327 105.432C326.491 105.841 326.732 106.213 327.036 106.526C327.34 106.839 327.7 107.088 328.097 107.257C328.494 107.427 328.92 107.515 329.349 107.515H340.383C340.813 107.515 341.238 107.427 341.635 107.257C342.032 107.088 342.393 106.839 342.697 106.526C343 106.213 343.241 105.841 343.406 105.432C343.57 105.022 343.654 104.584 343.654 104.141V102.448C348.6 106.353 354.652 108.476 360.88 108.491C377.578 108.491 391.151 93.3137 391.151 74.5705C391.151 55.8272 377.558 40.6589 360.86 40.6589H360.88ZM358.712 92.0748C349.865 92.0748 342.698 84.239 342.698 74.5803C342.698 64.9216 349.865 57.0961 358.712 57.0961C367.559 57.0961 374.716 64.9317 374.716 74.5803C374.716 84.2289 367.529 92.0748 358.692 92.0748H358.712Z" fill="white"/>
<path d="M490.862 108H480.262L504.078 41.8182H515.615L539.431 108H528.832L510.121 53.8395H509.604L490.862 108ZM492.639 82.0831H527.022V90.4851H492.639V82.0831ZM545.349 108V41.8182H568.939C574.088 41.8182 578.353 42.7553 581.736 44.6296C585.118 46.5039 587.65 49.0676 589.33 52.3207C591.01 55.5522 591.851 59.1931 591.851 63.2433C591.851 67.315 591 70.9774 589.298 74.2305C587.617 77.462 585.075 80.0257 581.671 81.9215C578.289 83.7958 574.034 84.733 568.907 84.733H552.684V76.2663H568.002C571.255 76.2663 573.894 75.7062 575.919 74.5859C577.944 73.4441 579.431 71.893 580.379 69.9325C581.326 67.9721 581.8 65.7423 581.8 63.2433C581.8 60.7442 581.326 58.5252 580.379 56.5863C579.431 54.6474 577.933 53.1285 575.887 52.0298C573.862 50.9311 571.19 50.3817 567.873 50.3817H555.334V108H545.349ZM599.917 108V41.8182H609.902V99.4041H639.891V108H599.917ZM656.609 108H646.01L669.826 41.8182H681.363L705.179 108H694.58L675.869 53.8395H675.352L656.609 108ZM658.387 82.0831H692.77V90.4851H658.387V82.0831ZM753.656 41.8182H763.674V85.3469C763.674 89.9788 762.586 94.0829 760.41 97.6591C758.234 101.214 755.175 104.014 751.232 106.061C747.29 108.086 742.669 109.099 737.369 109.099C732.091 109.099 727.481 108.086 723.538 106.061C719.596 104.014 716.536 101.214 714.361 97.6591C712.185 94.0829 711.097 89.9788 711.097 85.3469V41.8182H721.082V84.5391C721.082 87.5336 721.739 90.1942 723.053 92.521C724.389 94.8477 726.274 96.6789 728.709 98.0146C731.143 99.3287 734.03 99.9858 737.369 99.9858C740.73 99.9858 743.627 99.3287 746.062 98.0146C748.518 96.6789 750.392 94.8477 751.685 92.521C752.999 90.1942 753.656 87.5336 753.656 84.5391V41.8182ZM810.648 59.2038C810.303 56.1446 808.881 53.7749 806.382 52.0945C803.883 50.3925 800.738 49.5415 796.946 49.5415C794.231 49.5415 791.883 49.9724 789.901 50.8342C787.919 51.6744 786.379 52.8377 785.28 54.3242C784.203 55.7892 783.664 57.4588 783.664 59.3331C783.664 60.9058 784.031 62.263 784.763 63.4048C785.517 64.5466 786.497 65.5053 787.704 66.2809C788.932 67.0349 790.246 67.6705 791.646 68.1875C793.047 68.683 794.393 69.0923 795.686 69.4155L802.149 71.0959C804.26 71.6129 806.425 72.3131 808.644 73.1964C810.863 74.0797 812.92 75.243 814.816 76.6864C816.712 78.1299 818.242 79.918 819.405 82.0508C820.59 84.1836 821.182 86.7365 821.182 89.7095C821.182 93.4581 820.213 96.7866 818.274 99.695C816.357 102.603 813.567 104.898 809.904 106.578C806.264 108.259 801.858 109.099 796.687 109.099C791.732 109.099 787.445 108.312 783.826 106.74C780.207 105.167 777.374 102.937 775.327 100.05C773.28 97.142 772.149 93.6951 771.934 89.7095H781.952C782.146 92.1009 782.921 94.0936 784.278 95.6879C785.657 97.2605 787.413 98.4347 789.546 99.2102C791.7 99.9643 794.059 100.341 796.623 100.341C799.445 100.341 801.955 99.8996 804.152 99.0163C806.371 98.1115 808.116 96.862 809.387 95.2678C810.658 93.652 811.294 91.7669 811.294 89.6126C811.294 87.6521 810.734 86.0471 809.614 84.7976C808.515 83.5481 807.018 82.514 805.122 81.6953C803.247 80.8767 801.125 80.1549 798.756 79.5302L790.935 77.3974C785.636 75.954 781.435 73.8319 778.332 71.0312C775.252 68.2306 773.711 64.5251 773.711 59.9148C773.711 56.1016 774.745 52.7731 776.813 49.9293C778.882 47.0856 781.682 44.8774 785.215 43.3047C788.749 41.7105 792.734 40.9133 797.172 40.9133C801.653 40.9133 805.606 41.6997 809.032 43.2724C812.479 44.8451 815.193 47.0102 817.175 49.7678C819.157 52.5038 820.191 55.6491 820.278 59.2038H810.648ZM886.964 74.9091C886.964 81.9754 885.671 88.0507 883.086 93.1349C880.501 98.1977 876.957 102.097 872.454 104.833C867.973 107.548 862.878 108.905 857.169 108.905C851.439 108.905 846.322 107.548 841.819 104.833C837.338 102.097 833.805 98.1869 831.22 93.1026C828.635 88.0183 827.342 81.9538 827.342 74.9091C827.342 67.8428 828.635 61.7783 831.22 56.7156C833.805 51.6313 837.338 47.7319 841.819 45.0174C846.322 42.2814 851.439 40.9133 857.169 40.9133C862.878 40.9133 867.973 42.2814 872.454 45.0174C876.957 47.7319 880.501 51.6313 883.086 56.7156C885.671 61.7783 886.964 67.8428 886.964 74.9091ZM877.075 74.9091C877.075 69.5232 876.203 64.9883 874.458 61.3043C872.734 57.5988 870.365 54.7982 867.348 52.9023C864.354 50.985 860.961 50.0263 857.169 50.0263C853.356 50.0263 849.952 50.985 846.958 52.9023C843.963 54.7982 841.593 57.5988 839.848 61.3043C838.125 64.9883 837.263 69.5232 837.263 74.9091C837.263 80.295 838.125 84.8407 839.848 88.5462C841.593 92.2301 843.963 95.0308 846.958 96.9482C849.952 98.844 853.356 99.7919 857.169 99.7919C860.961 99.7919 864.354 98.844 867.348 96.9482C870.365 95.0308 872.734 92.2301 874.458 88.5462C876.203 84.8407 877.075 80.295 877.075 74.9091ZM931.87 59.2038C931.525 56.1446 930.103 53.7749 927.604 52.0945C925.105 50.3925 921.96 49.5415 918.168 49.5415C915.453 49.5415 913.105 49.9724 911.123 50.8342C909.141 51.6744 907.601 52.8377 906.502 54.3242C905.425 55.7892 904.886 57.4588 904.886 59.3331C904.886 60.9058 905.253 62.263 905.985 63.4048C906.739 64.5466 907.719 65.5053 908.926 66.2809C910.154 67.0349 911.468 67.6705 912.868 68.1875C914.269 68.683 915.615 69.0923 916.908 69.4155L923.371 71.0959C925.482 71.6129 927.647 72.3131 929.866 73.1964C932.085 74.0797 934.142 75.243 936.038 76.6864C937.934 78.1299 939.464 79.918 940.627 82.0508C941.812 84.1836 942.404 86.7365 942.404 89.7095C942.404 93.4581 941.435 96.7866 939.496 99.695C937.579 102.603 934.789 104.898 931.126 106.578C927.485 108.259 923.08 109.099 917.909 109.099C912.954 109.099 908.667 108.312 905.048 106.74C901.429 105.167 898.596 102.937 896.549 100.05C894.502 97.142 893.371 93.6951 893.156 89.7095H903.174C903.367 92.1009 904.143 94.0936 905.5 95.6879C906.879 97.2605 908.635 98.4347 910.768 99.2102C912.922 99.9643 915.281 100.341 917.845 100.341C920.667 100.341 923.177 99.8996 925.374 99.0163C927.593 98.1115 929.338 96.862 930.609 95.2678C931.88 93.652 932.516 91.7669 932.516 89.6126C932.516 87.6521 931.956 86.0471 930.836 84.7976C929.737 83.5481 928.24 82.514 926.344 81.6953C924.469 80.8767 922.347 80.1549 919.978 79.5302L912.157 77.3974C906.858 75.954 902.657 73.8319 899.554 71.0312C896.474 68.2306 894.933 64.5251 894.933 59.9148C894.933 56.1016 895.967 52.7731 898.035 49.9293C900.104 47.0856 902.904 44.8774 906.437 43.3047C909.971 41.7105 913.956 40.9133 918.394 40.9133C922.875 40.9133 926.828 41.6997 930.254 43.2724C933.701 44.8451 936.415 47.0102 938.397 49.7678C940.379 52.5038 941.413 55.6491 941.5 59.2038H931.87Z" fill="white"/>
</svg>
