<svg width="40" height="40" viewBox="0 0 40 40" fill="none" xmlns="http://www.w3.org/2000/svg">
<path d="M26.8064 11.0161L25.3657 14.5205L28.7261 13.5806L26.8064 11.0161Z" fill="#FF5C28"/>
<path d="M18.8854 10.426L16.8408 12.1908L19.7856 14.1945L18.8854 10.426Z" fill="#FF5C28"/>
<path d="M27.1652 18.0585C26.2254 17.3874 25.636 16.4901 25.1648 15.1083C24.9896 14.5947 24.5526 14.2626 24.0515 14.2626C23.5127 14.2626 23.0201 14.6253 22.7001 15.2575C22.5025 15.6478 22.406 16.0266 22.3754 16.3852C22.0435 15.7533 21.3691 15.6189 21.0493 16.0682C21.0493 16.0682 18.4196 13.981 17.5227 13.3164C16.3306 12.4342 14.7517 13.4113 14.7912 14.4204C13.286 13.5684 11.6337 15.0726 12.1427 16.6489C11.5606 16.5375 10.0715 18.149 11.6369 19.3867C10.5526 19.5029 10.1314 21.2755 11.3916 22.0825C11.3916 22.0825 11.3976 22.3276 11.4143 22.4479C10.5839 22.7113 10.2974 24.3506 11.1005 24.868C11.1005 24.868 16.8927 28.7296 18.8866 29.8914C19.9699 30.5226 21.8354 30.7705 23.4973 30.207C25.1111 30.0323 26.4803 29.1391 27.5805 27.5473C30.6083 23.1665 28.2097 18.8046 27.1652 18.0585ZM26.8106 27.1203C25.5497 28.97 23.739 29.1618 22.3533 29.1618C20.0914 29.1618 18.7097 28.0296 18.7097 28.0296L12.502 23.1902C11.3268 22.3431 12.0344 20.9933 12.8589 21.018L17.7973 24.5314L18.4052 24.5709C18.4052 24.5709 13.9943 21.2649 12.5662 20.1011C11.7324 19.4217 12.0064 18.1242 13.0858 17.8664L19.262 22.4954L19.8692 22.5349L13.2719 17.1928C11.878 16.1291 13.2768 14.1233 14.6282 15.1448C16.1867 16.3227 20.8755 20.0561 20.8755 20.0561L21.4833 20.0959L15.3108 14.7576C15.2575 13.9339 16.3069 13.2177 17.146 13.873C18.8332 15.1908 23.8977 19.1402 23.8977 19.1402C23.7673 18.7589 23.7021 18.4721 23.7021 18.4721C23.7021 18.4721 22.7399 16.8019 23.2612 15.5859C23.7189 14.5194 24.6448 14.6927 24.8316 15.2658C25.3278 16.7916 25.8418 17.6972 26.8702 18.4605C28.1834 19.4351 29.5262 23.138 26.8106 27.1203Z" fill="#FF5C28"/>
<path d="M24.4598 10.1992L21.625 9.89355L22.5923 14.1086L24.4598 10.1992Z" fill="#FF5C28"/>
<path d="M19.7331 33.9728C27.1923 33.9728 33.2392 27.7362 33.2392 20.0428C33.2392 12.3495 27.1923 6.11279 19.7331 6.11279C12.2739 6.11279 6.22705 12.3495 6.22705 20.0428C6.22705 27.7362 12.2739 33.9728 19.7331 33.9728Z" stroke="#FF5C28" stroke-width="2" stroke-linecap="round"/>
<path d="M19.9052 3.96696V3.36279M27.298 5.8347L27.5747 5.30125M33.0008 11.0146L33.4835 10.668M35.7002 18.3136L36.2851 18.24M34.7826 26.0628L35.3328 26.2793M30.4544 32.4912L30.8487 32.9402M23.7122 36.1182L23.8548 36.7044M16.0983 36.1182L15.9557 36.7044M9.35613 32.4912L8.96181 32.9402M5.02786 26.0628L4.47771 26.2793M4.11029 18.3136L3.52539 18.24M6.80969 11.0146L6.32697 10.668M12.5125 5.8347L12.2358 5.30125" stroke="#FF5C28" stroke-width="2" stroke-linecap="round"/>
<circle cx="20" cy="20" r="19" stroke="#FF5C28" stroke-width="2"/>
</svg>
