<svg width="176" height="176" viewBox="0 0 176 176" fill="none" xmlns="http://www.w3.org/2000/svg">
<path d="M96.6275 132.863C96.6275 134.569 96.1215 136.237 95.1735 137.656C94.2255 139.075 92.8781 140.18 91.3016 140.833C89.7251 141.486 87.9904 141.657 86.3169 141.324C84.6433 140.992 83.1061 140.17 81.8995 138.963C80.6929 137.757 79.8712 136.219 79.5383 134.546C79.2055 132.872 79.3763 131.138 80.0293 129.561C80.6823 127.985 81.7881 126.637 83.2069 125.689C84.6256 124.741 86.2937 124.235 88 124.235C90.2882 124.235 92.4826 125.144 94.1006 126.762C95.7185 128.38 96.6275 130.575 96.6275 132.863ZM88 41.4118C69.8824 41.4118 55.2157 54.5686 55.2157 70.7451V74.1961C55.2157 75.5689 55.7611 76.8856 56.7319 77.8564C57.7026 78.8272 59.0193 79.3725 60.3922 79.3725C61.7651 79.3725 63.0817 78.8272 64.0525 77.8564C65.0233 76.8856 65.5687 75.5689 65.5687 74.1961V70.7451C65.5687 60.28 75.6283 51.7647 88 51.7647C100.372 51.7647 110.431 60.28 110.431 70.7451C110.431 81.2102 100.372 89.7255 88 89.7255C86.6271 89.7255 85.3105 90.2708 84.3397 91.2416C83.3689 92.2124 82.8236 93.5291 82.8236 94.9019V101.804C82.8236 103.177 83.3689 104.493 84.3397 105.464C85.3105 106.435 86.6271 106.98 88 106.98C89.3729 106.98 90.6896 106.435 91.6603 105.464C92.6311 104.493 93.1765 103.177 93.1765 101.804V99.7161C108.801 97.4902 120.784 85.3427 120.784 70.7451C120.784 54.5686 106.118 41.4118 88 41.4118ZM176 88C176 105.405 170.839 122.419 161.169 136.89C151.5 151.362 137.756 162.641 121.676 169.301C105.596 175.962 87.9024 177.705 70.8321 174.309C53.7617 170.914 38.0817 162.532 25.7746 150.225C13.4676 137.918 5.08643 122.238 1.69094 105.168C-1.70456 88.0976 0.0381275 70.4037 6.69864 54.3238C13.3591 38.244 24.6383 24.5002 39.1098 14.8307C53.5814 5.16111 70.5953 0 88 0C111.331 0.0273995 133.698 9.3076 150.195 25.8049C166.692 42.3021 175.973 64.6693 176 88ZM165.647 88C165.647 72.6428 161.093 57.6306 152.561 44.8616C144.029 32.0926 131.902 22.1404 117.714 16.2635C103.526 10.3865 87.9139 8.84888 72.8518 11.8449C57.7898 14.8409 43.9544 22.2361 33.0953 33.0952C22.2361 43.9544 14.841 57.7897 11.8449 72.8518C8.84892 87.9138 10.3866 103.526 16.2635 117.714C22.1404 131.902 32.0926 144.029 44.8616 152.561C57.6306 161.093 72.6429 165.647 88 165.647C108.586 165.624 128.323 157.436 142.88 142.88C157.436 128.323 165.624 108.586 165.647 88Z" fill="#C8C8C8"/>
</svg>
